# xmcd CD database file
#
# Track frame offsets:
#	150
#	14319
#	26313
#	40653
#	53821
#	67168
#	79465
#	93634
#	108692
#	122470
#	135336
#	146304
#	160758
#	172355
#
# Disc length: 2433 seconds
#
# Revision: 0
# Processed by: cddbd v1.5.2PL0 Copyright (c) Steve Scherf et al.
# Submitted via: CDex 1.70beta2
#
DISCID=bb097f0e
DTITLE=Nat King Cole - With Love - CD 02
DYEAR=2008
DGENRE=Jazz
TTITLE0=I'd Like To Make Love To You
TTITLE1=Oh, But I Do
TTITLE2=I Don't Know Why (I Just Do)
TTITLE3=It's Only A Paper Moon
TTITLE4=Hit That Jive Jack
TTITLE5=If I Could Be With You
TTITLE6=Are You For It
TTITLE7=The Man I Love
TTITLE8=What Can I Say (After I say I'm Sorry)
TTITLE9=Riffamarole
TTITLE10=Straighten Up And Fly Right
TTITLE11=I'm In The Mood For Love
TTITLE12=Bring Another Drink
TTITLE13=Candy
EXTD=YEAR: 2008
EXTT0=
EXTT1=
EXTT2=
EXTT3=
EXTT4=
EXTT5=
EXTT6=
EXTT7=
EXTT8=
EXTT9=
EXTT10=
EXTT11=
EXTT12=
EXTT13=
PLAYORDER=
